# xmcd
#
# Track frame offsets:
#	150
#	26430
#	47397
#	67497
#	83260
#	102837
#	123825
#	141127
#	155677
#	184612
#
# Disc length: 2721 seconds
#
# Revision: 0
# Processed by: cddbd v1.5.2PL0 Copyright (c) Steve Scherf et al.
# Submitted via: EZCDAudioConverter 7.1.5.1
#
DISCID=790a9f0a
DTITLE=任贤齐 - 心太软
DYEAR=1996
DGENRE=滚石唱片RD-1388含大图[by cost1111][wav]
TTITLE0=心太软
TTITLE1=5151
TTITLE2=浪漫手牵手
TTITLE3=爱的不轻
TTITLE4=我爱你（DISCO版）
TTITLE5=哭个痛快
TTITLE6=一个男人的眼泪
TTITLE7=长藤挂铜铃
TTITLE8=我爱你（HOUSE版）
TTITLE9=童话
EXTD=
EXTT0=
EXTT1=
EXTT2=
EXTT3=
EXTT4=
EXTT5=
EXTT6=
EXTT7=
EXTT8=
EXTT9=
PLAYORDER=
